<svg width="600" height="600" viewBox="0 0 600 600" fill="none" xmlns="http://www.w3.org/2000/svg">
<g clip-path="url(#clip0_1_2)">
<path d="M0 0C198 0 396 0 600 0C600 198 600 396 600 600C402 600 204 600 0 600C0 402 0 204 0 0Z" fill="#010101"/>
<path d="M180 140C259.2 140 338.4 140 420 140C420 166.4 420 192.8 420 220C393.6 220 367.2 220 340 220C340 299.2 340 378.4 340 460C313.6 460 287.2 460 260 460C260 380.8 260 301.6 260 220C233.6 220 207.2 220 180 220C180 193.6 180 167.2 180 140Z" fill="#FEFEFE"/>
<path d="M420 380C446.4 380 472.8 380 500 380C500 406.4 500 432.8 500 460C473.6 460 447.2 460 420 460C420 433.6 420 407.2 420 380Z" fill="#2AE40E"/>
<path d="M417 456C417.66 456 418.32 456 419 456C419.66 457.98 420.32 459.96 421 462C420.34 462.66 419.68 463.32 419 464C416.848 460.772 416.799 459.716 417 456Z" fill="#09020B"/>
</g>
<defs>
<clipPath id="clip0_1_2">
<rect width="600" height="600" fill="white"/>
</clipPath>
</defs>
</svg>
