<svg width="600" height="600" viewBox="0 0 600 600" fill="none" xmlns="http://www.w3.org/2000/svg">
<g clip-path="url(#clip0_1_2)">
<circle cx="300" cy="300" r="300" fill="#010101"/>
<path d="M177 140C256.2 140 335.4 140 417 140C417 166.4 417 192.8 417 220C390.6 220 364.2 220 337 220C337 299.2 337 378.4 337 460C310.6 460 284.2 460 257 460C257 380.8 257 301.6 257 220C230.6 220 204.2 220 177 220C177 193.6 177 167.2 177 140Z" fill="#FEFEFE"/>
<path d="M417 380C443.4 380 469.8 380 497 380C497 406.4 497 432.8 497 460C470.6 460 444.2 460 417 460C417 433.6 417 407.2 417 380Z" fill="#2AE40E"/>
<path d="M417 456C417.66 456 418.32 456 419 456C419.66 457.98 420.32 459.96 421 462C420.34 462.66 419.68 463.32 419 464C416.848 460.772 416.799 459.716 417 456Z" fill="#09020B"/>
</g>
<defs>
<clipPath id="clip0_1_2">
<rect width="600" height="600" fill="white"/>
</clipPath>
</defs>
</svg>
